<?xml version="1.0" encoding="UTF-8" standalone="no"?>
<!-- Created with Inkscape (http://www.inkscape.org/) -->

<svg
   width="32"
   height="21.746"
   viewBox="0 0 8.4666665 5.7536292"
   version="1.1"
   id="svg1"
   xml:space="preserve"
   inkscape:version="1.4.2 (f4327f4, 2025-05-13)"
   sodipodi:docname="rv_logo.svg"
   xmlns:inkscape="http://www.inkscape.org/namespaces/inkscape"
   xmlns:sodipodi="http://sodipodi.sourceforge.net/DTD/sodipodi-0.dtd"
   xmlns:xlink="http://www.w3.org/1999/xlink"
   xmlns="http://www.w3.org/2000/svg"
   xmlns:svg="http://www.w3.org/2000/svg"><sodipodi:namedview
     id="namedview1"
     pagecolor="#ffffff"
     bordercolor="#000000"
     borderopacity="0.25"
     inkscape:showpageshadow="2"
     inkscape:pageopacity="0.0"
     inkscape:pagecheckerboard="0"
     inkscape:deskcolor="#d1d1d1"
     inkscape:document-units="mm"
     inkscape:zoom="5.9366444"
     inkscape:cx="15.075857"
     inkscape:cy="11.033169"
     inkscape:window-width="1920"
     inkscape:window-height="1051"
     inkscape:window-x="-9"
     inkscape:window-y="-9"
     inkscape:window-maximized="1"
     inkscape:current-layer="layer1" /><defs
     id="defs1"><linearGradient
       id="linearGradient7"
       inkscape:collect="always"><stop
         style="stop-color:#1d1f27;stop-opacity:1;"
         offset="0"
         id="stop7" /><stop
         style="stop-color:#6441b1;stop-opacity:1;"
         offset="0.5"
         id="stop1" /><stop
         style="stop-color:#e84300;stop-opacity:1;"
         offset="1"
         id="stop8" /></linearGradient><linearGradient
       inkscape:collect="always"
       xlink:href="#linearGradient7"
       id="linearGradient8"
       x1="1.3168346e-09"
       y1="186.15018"
       x2="185.74223"
       y2="186.15018"
       gradientUnits="userSpaceOnUse"
       gradientTransform="matrix(0.04558288,0,0,0.04558288,-1.3400008e-8,-5.6085051)" /></defs><g
     inkscape:label="Layer 1"
     inkscape:groupmode="layer"
     id="layer1"><path
       style="fill:url(#linearGradient8);stroke-width:0.0455829"
       d="M 0.46843025,5.7445242 C 0.43030409,5.7305417 0.38611548,5.6810329 0.37439311,5.6391645 0.34851787,5.5467469 0.4129555,5.4525847 0.50709028,5.445255 L 0.54813848,5.442055 0.87630798,5.1147333 1.2044775,4.7874084 V 3.2046567 c 0,-1.2578224 0.00183,-1.5852524 0.0089,-1.5949242 0.00793,-0.010848 0.022772,-0.011959 0.1365895,-0.010226 l 0.1276903,0.00195 0.00179,1.602036 0.00179,1.6020349 -0.1322279,0.1378696 c -0.1062255,0.1107518 -0.41037713,0.4063083 -0.480612,0.4670244 -0.008333,0.0072 -0.0279409,0.024821 -0.0435731,0.039152 -0.0156321,0.014329 -0.0547464,0.049542 -0.0869205,0.078249 -0.0544719,0.048602 -0.0584985,0.054112 -0.0584985,0.080053 0,0.097936 -0.11443509,0.1720576 -0.21097604,0.1366524 z M 1.7631563,5.5865401 c -0.030567,-0.00699 -0.069347,-0.042296 -0.084786,-0.077197 -0.026327,-0.059516 -0.00171,-0.1256119 0.058331,-0.1566053 0.1038771,-0.053624 0.2174929,0.062502 0.1638956,0.1675164 -0.017149,0.033601 -0.035555,0.050072 -0.069467,0.062167 -0.029289,0.010445 -0.037989,0.010971 -0.067974,0.00412 z M 1.2342788,5.463562 c -0.00587,-0.00587 -0.00851,-0.041718 -0.00851,-0.1153571 V 5.2413628 L 1.3996052,5.0676299 1.5734464,4.8938977 V 3.2498672 c 0,-0.9261522 0.0027,-1.645699 0.00618,-1.6478509 0.0034,-0.0021 0.1888176,-0.0043 0.4120403,-0.00489 0.3035575,-7.985e-4 0.4079697,0.00104 0.414231,0.0073 0.00636,0.00636 0.00895,0.3632176 0.010798,1.486946 l 0.00243,1.4785746 -0.075156,0.079346 -0.075156,0.079346 V 4.9075432 5.086443 l 0.018678,0.017201 c 0.059873,0.055141 0.068423,0.1583505 0.018591,0.2244001 -0.020312,0.026923 -0.080847,0.058901 -0.1113912,0.058846 C 2.1382691,5.3867991 2.081481,5.3518392 2.0557383,5.3013794 2.0253335,5.2417812 2.041402,5.1572278 2.0917727,5.1117613 l 0.021379,-0.019297 2.051e-4,-0.1731576 c 1.139e-4,-0.095236 -0.00238,-0.1750977 -0.00554,-0.1774693 -0.00316,-0.00238 -0.046461,-0.046277 -0.096219,-0.097568 L 1.9211265,4.5510137 V 4.222076 3.893138 l 0.1064333,-0.106256 0.1064334,-0.1062559 2e-7,-0.8338166 2e-7,-0.8338166 0.024834,-0.019815 c 0.021726,-0.017335 0.024834,-0.023787 0.024834,-0.051547 0,-0.025909 -0.00423,-0.036347 -0.02306,-0.056886 -0.019586,-0.021365 -0.027815,-0.02522 -0.054619,-0.025586 -0.026693,-3.652e-4 -0.034624,0.003 -0.051443,0.021823 -0.026516,0.029677 -0.027359,0.072896 -0.00214,0.1100503 l 0.017739,0.02614 V 2.8288147 3.6404575 L 1.9637004,3.7521082 1.8572671,3.8637589 1.8571577,4.0346394 c -5.93e-5,0.093985 -0.00282,0.1751513 -0.00612,0.1803712 -0.00331,0.00522 -0.013637,0.00841 -0.022952,0.0071 l -0.016936,-0.00238 V 3.1534797 2.0872465 l 0.03319,-0.02837 c 0.053813,-0.045996 0.062224,-0.1022716 0.022977,-0.153727 -0.033892,-0.044435 -0.092965,-0.056994 -0.1444746,-0.030716 -0.076692,0.039125 -0.084457,0.131807 -0.015354,0.1832687 0.014085,0.01049 0.027916,0.022283 0.030735,0.026208 0.00282,0.00392 0.00511,0.6617008 0.00509,1.461725 L 1.7432695,5.0002239 1.5607925,5.185857 C 1.2858379,5.4655666 1.2590566,5.4883449 1.2342758,5.4635636 Z M 5.9999474,5.459792 C 5.9636517,5.4569142 5.9685445,5.4615565 5.7707997,5.2414714 5.7322302,5.1985434 5.6844475,5.1458255 5.6646156,5.1243201 5.6447834,5.1028136 5.6128491,5.0676921 5.5936501,5.0462691 5.5744523,5.0248461 5.5377317,4.9849672 5.512051,4.9576493 5.4614683,4.903841 5.3755027,4.8080057 5.3108533,4.7333523 5.2885111,4.707553 5.2702315,4.6817671 5.2702315,4.6760505 c 0,-0.013463 0.029606,-0.041249 0.043949,-0.041249 0.00611,0 0.061214,0.020643 0.12246,0.045871 0.1268461,0.052253 0.2305017,0.088379 0.3167988,0.1104127 0.059157,0.015103 0.059902,0.01558 0.116848,0.074614 0.031521,0.032677 0.066297,0.06283 0.077281,0.067005 0.03205,0.012185 0.2728132,0.017164 0.3750021,0.00776 C 6.501155,4.9240171 6.6992705,4.8835693 6.8683941,4.8290217 6.957927,4.800143 6.9340778,4.8316833 7.0743565,4.5567498 7.2831306,4.1475909 7.308539,4.0987364 7.3174746,4.0892972 c 0.020547,-0.021708 0.032077,-0.012711 0.2339782,0.1825785 0.035124,0.033973 0.1332201,0.1283338 0.2179936,0.2096911 0.084774,0.081357 0.1560826,0.1540631 0.1584647,0.1615689 0.00588,0.018517 -0.0058,0.034524 -0.079396,0.1088687 C 7.6599903,4.9424346 7.4839539,5.0728684 7.2552408,5.1915882 7.0047843,5.3215954 6.7843374,5.3927021 6.4957398,5.4365703 6.3414161,5.4600298 6.1283177,5.4700097 5.9999474,5.459792 Z m 0.00594,-0.2660285 c 0.035291,-0.03529 0.017459,-0.1051263 -0.030203,-0.1182865 -0.042567,-0.011754 -0.08267,0.0073 -0.095188,0.045236 -0.010439,0.031631 -0.00297,0.056707 0.023463,0.078965 0.01848,0.015549 0.026923,0.01792 0.053278,0.014948 0.020377,-0.00229 0.037374,-0.00958 0.04865,-0.020862 z M 4.3077857,5.3883751 C 4.2371535,5.3100328 4.1845913,5.2506902 3.9074198,4.9363624 3.8007411,4.8153833 3.6829674,4.6826786 3.6457006,4.6414639 3.6084338,4.6002488 3.5156791,4.496662 3.4395791,4.4112695 3.3023217,4.2572531 3.1683759,4.1088859 3.1080946,4.0440966 l -0.03136,-0.033704 H 2.851581 c -0.165659,0 -0.2274038,-0.00226 -0.2336685,-0.00851 -0.00639,-0.00638 -0.00851,-0.093819 -0.00851,-0.3498107 0,-0.2559921 0.00213,-0.3434244 0.00851,-0.3498108 0.00638,-0.00638 0.091655,-0.00851 0.3400732,-0.00851 0.1888564,0 0.3554477,-0.00317 0.3870626,-0.00737 C 3.6939989,3.2400495 3.9922691,3.0662726 4.185737,2.7965751 4.297276,2.6410872 4.3652465,2.4384193 4.3735731,2.2365031 4.3837532,1.9896467 4.3136657,1.7416945 4.1766568,1.5398585 4.1155691,1.4498661 3.9819423,1.316569 3.8830504,1.2469753 3.7152889,1.1289165 3.5085277,1.0534664 3.2895592,1.0304023 3.2489387,1.0261221 2.7883276,1.0233612 2.1030442,1.023286 L 0.98292496,1.0231492 0.74153415,0.77825246 C 0.60876923,0.64355913 0.49338073,0.53166135 0.48511538,0.52959008 c -0.008265,-0.002069 -0.0289997,0.001167 -0.0460763,0.007196 -0.0962176,0.0339679 -0.19581562,-0.005501 -0.24987254,-0.0990202 -0.0176568,-0.0305464 -0.0205165,-0.0429454 -0.0205738,-0.0892043 -1.1851e-4,-0.0963376 0.0336749,-0.15570383 0.11091191,-0.19483856 0.0352449,-0.017858 0.0496796,-0.0210438 0.0947926,-0.0209194 0.0649838,1.8233e-4 0.10622279,0.016991 0.15054757,0.0613723 0.0420131,0.0420666 0.0576179,0.0773633 0.0609734,0.13791786 l 0.002795,0.05043 0.25294172,0.25276621 0.25294176,0.25276664 1.1281935,0.002433 c 1.2235806,0.00264 1.1264374,-4.1163e-4 1.3020346,0.0407 0.1363983,0.031923 0.2911144,0.0965109 0.3925311,0.16386687 0.022717,0.015086 0.043103,0.02743 0.045306,0.02743 0.014914,0 0.1401038,0.1051789 0.2083378,0.1750369 0.08456,0.086572 0.1125265,0.1234968 0.1894618,0.2501543 0.043857,0.072201 0.044816,0.074842 0.040305,0.1109469 -0.00858,0.06868 0.028216,0.1105271 0.083408,0.094858 0.028838,-0.00819 0.035225,-0.012593 0.050405,-0.034775 0.015103,-0.02207 0.015125,-0.037597 9.1e-5,-0.069262 -0.00822,-0.017316 -0.021055,-0.029137 -0.041432,-0.038151 -0.02614,-0.011563 -0.033402,-0.020607 -0.063334,-0.078867 C 4.393777,1.4623002 4.3527666,1.4007733 4.2960801,1.3318064 4.0548486,1.0383133 3.7127659,0.86059381 3.2905626,0.8094179 3.2443808,0.80382034 2.907003,0.79987696 2.2191336,0.79689584 L 1.2151123,0.79254268 1.161401,0.73577831 C 1.1318598,0.70455769 1.0352715,0.60415821 0.94676042,0.51266834 0.85824926,0.42117801 0.78583111,0.34074338 0.78583111,0.33392419 c 0,-0.006819 0.003991,-0.0149819 0.008869,-0.0181387 0.004878,-0.003159 0.58520609,-0.004758 1.28961749,-0.003555 1.3995351,0.002389 1.3596064,0.00126 1.570443,0.0444242 C 3.9200962,0.41097949 4.2049344,0.5359987 4.3977031,0.68274048 4.5775314,0.81963271 4.7085043,0.95934563 4.833257,1.1473618 4.907634,1.259457 4.9127,1.268719 4.9677906,1.393312 c 0.055662,0.1258849 0.078338,0.1922317 0.107069,0.3132574 0.031713,0.1335861 0.040965,0.2302474 0.041556,0.43413 7.428e-4,0.2596898 -0.032134,0.4505462 -0.1167625,0.677626 -0.132395,0.3552514 -0.3678473,0.6537759 -0.6784613,0.8602053 -0.047806,0.031771 -0.08692,0.060354 -0.08692,0.063519 0,0.00316 0.011974,0.019318 0.026607,0.035902 0.074632,0.084563 0.4530002,0.5002912 0.5087673,0.5590024 0.067721,0.071295 0.2339939,0.2544561 0.4507301,0.4965089 0.071635,0.080003 0.170624,0.1885646 0.2199755,0.2412488 0.086481,0.092321 0.1887092,0.2033035 0.2826808,0.3068886 0.027786,0.030627 0.04329,0.053379 0.0408,0.059869 -0.0022,0.00576 -0.00402,0.011804 -0.00402,0.013435 0,0.00164 -0.1894479,0.00297 -0.4209947,0.00297 H 4.9178254 L 4.8119752,5.3429126 C 4.7537577,5.2796831 4.6883389,5.2086384 4.6666002,5.1850362 4.6169976,5.1311803 4.5117649,5.0131767 4.2839393,4.7559352 4.2327507,4.6981367 4.2020506,4.6574426 4.2065085,4.6532963 c 0.00161,-0.00149 0.04763,0.0033 0.1022651,0.010665 0.054636,0.00736 0.1360578,0.018177 0.1809369,0.024029 0.079917,0.010421 0.0821,0.011188 0.1059111,0.037259 0.01337,0.014642 0.065258,0.070699 0.1153027,0.1245744 0.079424,0.085502 0.090991,0.1010116 0.090991,0.1220026 0,0.05806 0.067588,0.085706 0.1045321,0.042756 0.013927,-0.01619 0.016722,-0.025477 0.013553,-0.04501 -0.00542,-0.033419 -0.029804,-0.058054 -0.057458,-0.058054 -0.025115,0 -0.047282,-0.02111 -0.1803918,-0.1718183 C 4.6182285,4.667329 4.597979,4.6487434 4.5797914,4.6457503 4.567322,4.6437077 4.4820831,4.6339154 4.3903729,4.6240116 4.1441735,4.5974232 4.1417493,4.5969342 4.1207416,4.5697438 4.0987739,4.5413108 4.0137194,4.445642 3.8475628,4.2624783 3.7773166,4.1850419 3.6962814,4.0942469 3.6674848,4.0607123 3.56137,3.9371369 3.5716482,3.9454554 3.5316297,3.9507641 c -0.019414,0.00257 -0.035297,0.00733 -0.035297,0.010557 0,0.00323 0.035935,0.045126 0.079856,0.093102 0.084817,0.092647 0.087381,0.095502 0.2632181,0.2929992 0.062542,0.070246 0.1591131,0.1772118 0.2146025,0.2377011 0.055489,0.06049 0.1368841,0.1530869 0.1808765,0.2057711 0.043992,0.052685 0.1014028,0.1197377 0.1275784,0.149007 0.1887067,0.2110099 0.4032596,0.4526099 0.4175823,0.4702246 0.013067,0.016072 0.015422,0.023853 0.00987,0.032651 -0.00641,0.010167 -0.031993,0.011776 -0.2132838,0.013432 l -0.2060001,0.00189 z M 4.1884828,4.9792583 c 0.010978,-0.010978 0.017415,-0.025524 0.017415,-0.039348 0,-0.027356 -0.027687,-0.056764 -0.05344,-0.056764 -0.026375,0 -0.060089,0.035524 -0.060089,0.063314 0,0.047688 0.060557,0.068354 0.096112,0.032798 z M 3.8435184,4.5747517 c 0.051713,-0.026743 0.033138,-0.1069913 -0.025805,-0.1114823 -0.062883,-0.00479 -0.097271,0.064723 -0.051195,0.1034934 0.024676,0.020761 0.047681,0.02315 0.076999,0.00799 z M 4.5284765,4.3775875 c 0.037924,-0.033158 0.035187,-0.094394 -0.00532,-0.1190943 -0.030538,-0.018619 -0.049362,-0.017539 -0.075349,0.00433 l -0.02172,0.018275 -0.1220127,-0.01817 C 4.1602578,4.2415083 4.1851839,4.2582518 4.0390336,4.0848975 3.8699914,3.8843883 3.886863,3.9004312 3.8558114,3.9106793 c -0.023156,0.00764 -0.025428,0.010269 -0.017431,0.02016 0.00506,0.00625 0.06507,0.078786 0.133365,0.1611805 0.068295,0.082395 0.1353478,0.1634052 0.1490069,0.1800233 l 0.024834,0.030216 0.1206247,0.013624 c 0.066343,0.00749 0.1259969,0.013667 0.1325634,0.01372 0.00657,4.55e-5 0.013998,0.00658 0.016515,0.014506 0.014586,0.045955 0.077602,0.064596 0.1131879,0.033482 z M 3.080237,3.7664769 c 0.01285,-0.00537 0.032704,-0.020962 0.044119,-0.034651 l 0.020755,-0.024889 0.1419112,-0.00384 C 3.4372356,3.6990325 3.5200977,3.6864053 3.665159,3.6454598 3.9151162,3.5749062 4.1802971,3.413977 4.3691656,3.2182229 4.4951727,3.0876216 4.571308,2.979298 4.6433245,2.8281543 l 0.037585,-0.07888 0.032664,-0.00368 c 0.057942,-0.00653 0.095487,-0.0567 0.095399,-0.1274739 -9.1e-5,-0.057802 -0.032326,-0.09652 -0.094189,-0.1130661 -0.055149,-0.01475 -0.119207,0.014943 -0.139873,0.064835 -0.012927,0.031211 -0.00601,0.092431 0.013559,0.1199058 0.020213,0.028386 0.018257,0.036872 -0.031497,0.1365809 C 4.3955349,3.1499082 4.0927119,3.4211 3.7505972,3.548519 3.5906888,3.6080757 3.3878609,3.64869 3.2515886,3.6484405 3.1798744,3.6483037 3.155566,3.6418669 3.1476449,3.6208896 3.1303907,3.5752002 3.0794586,3.540873 3.0279273,3.5402035 2.9630562,3.5393679 2.9145061,3.5890862 2.9145061,3.6563716 c 0,0.044787 0.014027,0.071945 0.050988,0.09872 0.033051,0.023942 0.07478,0.028083 0.1147429,0.011385 z M 4.8146947,2.0491041 c 0.042603,-0.022257 0.072377,-0.068239 0.072377,-0.1117779 0,-0.047464 -0.04069,-0.094661 -0.092659,-0.1074771 C 4.7777061,1.8257285 4.774407,1.8178922 4.7530904,1.7317543 4.625512,1.2162037 4.1848856,0.78808603 3.641096,0.65132737 3.4343608,0.59933509 3.3506303,0.59377259 2.7407858,0.59151442 l -0.4327087,-0.0016 -0.021745,-0.0210758 c -0.067503,-0.0654274 -0.1665392,0.0265643 -0.106024,0.0984823 0.029634,0.0352187 0.075747,0.0359722 0.1076213,0.001761 0.013309,-0.0142846 0.016307,-0.0143307 0.5204309,-0.007957 0.5950812,0.007524 0.6242935,0.0102516 0.8687644,0.0811261 0.1138902,0.033018 0.3184308,0.12727881 0.3975053,0.18318712 0.015611,0.0110371 0.04754,0.0333129 0.070956,0.0495021 0.065204,0.0450805 0.1460417,0.11249906 0.1422502,0.11863446 -0.00186,0.00302 0.00847,0.01454 0.02297,0.025604 0.050339,0.038416 0.1234454,0.120811 0.1723312,0.1942268 0.027037,0.040603 0.049157,0.078121 0.049157,0.083373 0,0.00525 0.00269,0.00955 0.00598,0.00955 0.00329,0 0.0222,0.029535 0.042024,0.065634 0.041524,0.075612 0.093746,0.2164352 0.1119425,0.3018694 l 0.012534,0.058847 -0.021528,0.022752 c -0.029457,0.031133 -0.037422,0.048771 -0.037422,0.082881 0,0.047771 0.030915,0.096855 0.071101,0.1128897 0.026038,0.010389 0.075924,0.00932 0.097771,-0.00209 z M 1.5763635,0.62526718 c 0.037746,-0.044859 0.016287,-0.10702177 -0.04142,-0.11998647 -0.047699,-0.0107165 -0.089217,0.0216738 -0.089217,0.0696028 0,0.0177936 0.00621,0.0301776 0.024125,0.0480899 0.020306,0.0203058 0.029192,0.0241249 0.056134,0.0241249 0.027032,0 0.034865,-0.003396 0.050379,-0.0218311 z M 0.44952006,0.40489355 c 0.0435795,-0.0435795 0.0378968,-0.10470617 -0.0133694,-0.14380853 -0.0701417,-0.0534997 -0.16321844,-0.012977 -0.16321844,0.0710605 0,0.0364741 0.0147804,0.0609685 0.0523486,0.0867529 0.019904,0.0136613 0.0308622,0.0160608 0.0619413,0.0135653 0.0315091,-0.002529 0.0418211,-0.007094 0.0622979,-0.0275702 z M 6.016784,4.8770808 C 5.9731234,4.8725994 5.9709171,4.8713336 5.9122362,4.8171233 5.8552811,4.7645082 5.8486542,4.7605637 5.7794491,4.7380726 5.4348734,4.6260889 5.187904,4.4812614 4.9780893,4.2681389 4.8916765,4.1803636 4.8584435,4.1390489 4.7929461,4.0379736 4.7149418,3.9175968 4.6606997,3.8062469 4.6311541,3.7058416 L 4.6177469,3.6602783 4.693871,3.582854 C 4.735739,3.54027 4.775223,3.502582 4.781612,3.499102 c 0.00985,-0.00537 0.015595,0.00519 0.037844,0.069597 0.1274651,0.3689976 0.4136592,0.6917365 0.7651106,0.8628108 0.1278461,0.062231 0.2525483,0.1036046 0.4023172,0.1334804 0.097959,0.019541 0.282185,0.022726 0.3883338,0.00672 l 0.065486,-0.00988 0.028523,0.029389 c 0.026316,0.027115 0.031405,0.029386 0.065782,0.029365 0.084664,-4.58e-5 0.132026,-0.069197 0.098823,-0.1442572 C 6.6154816,4.434844 6.5844566,4.414902 6.5382126,4.414866 6.4970896,4.4148341 6.4702796,4.427682 6.4433806,4.460317 6.4245266,4.483188 6.4190326,4.485358 6.3600056,4.493212 6.2555386,4.5071144 6.0442638,4.4983806 5.9407627,4.4758805 5.6660906,4.4161743 5.4105504,4.275195 5.2237598,4.0803167 5.0742171,3.9242998 4.9376979,3.6835793 4.891155,3.4938451 4.858745,3.361724 4.8526347,3.3836605 4.9589315,3.2505187 c 0.051125,-0.064036 0.099342,-0.119474 0.1071491,-0.1231963 0.02203,-0.010504 0.031282,0.00948 0.036805,0.079522 0.010916,0.1384205 0.054602,0.2906929 0.1185684,0.4132916 0.1598246,0.3063212 0.4870381,0.5420657 0.8221938,0.5923578 0.1546824,0.023212 0.2759599,0.020253 0.4221857,-0.0103 0.1998753,-0.041762 0.4181444,-0.1532597 0.5616612,-0.2869109 0.058625,-0.054595 0.078787,-0.063471 0.1017733,-0.044803 0.00585,0.00475 0.038683,0.038021 0.072953,0.073927 0.055921,0.05859 0.061821,0.067319 0.057546,0.085147 -0.00674,0.028105 -0.348379,0.7059892 -0.3592425,0.7128107 -0.013859,0.0087 -0.1592814,0.05361 -0.2492516,0.076971 -0.1540238,0.039992 -0.2839797,0.057552 -0.4444276,0.060055 -0.080003,0.00124 -0.1655298,2.281e-4 -0.190061,-0.00232 z M 4.6943804,4.1044082 C 4.6613484,4.0689921 4.5868166,3.9761548 4.5117376,3.8769054 c -0.033174,-0.043853 -0.043618,-0.062973 -0.040715,-0.074538 0.00358,-0.014252 0.067574,-0.068702 0.080747,-0.068702 0.00311,0 0.021262,0.037518 0.040335,0.083373 0.019074,0.045855 0.060919,0.1368557 0.092987,0.2022234 0.033293,0.067866 0.054534,0.1188504 0.049514,0.1188504 -0.00483,0 -0.022936,-0.015168 -0.040225,-0.033704 z M 2.6205479,3.1974446 c -0.0093,-0.00931 -0.01115,-0.032138 -0.01115,-0.1379449 0,-0.093644 0.00232,-0.1282953 0.00887,-0.1325349 0.00488,-0.00316 0.1621335,-0.00592 0.3494562,-0.00613 0.4170623,-4.797e-4 0.4506561,-0.00488 0.6038953,-0.079093 0.1599004,-0.077442 0.2968592,-0.2214822 0.3612697,-0.3799484 0.039118,-0.09624 0.049333,-0.1553136 0.049389,-0.2856032 4.55e-5,-0.1119885 -0.00142,-0.1257048 -0.020451,-0.1915803 -0.011278,-0.039025 -0.022732,-0.074148 -0.025456,-0.078051 -0.00272,-0.0039 -0.010523,-0.021464 -0.017332,-0.039025 C 3.8897419,1.7919606 3.8052386,1.6765607 3.7366407,1.6184462 3.6242389,1.5232222 3.49289,1.4607759 3.34024,1.4299883 3.28485,1.4188164 3.1733085,1.417628 1.9734973,1.4154227 L 0.66706673,1.4130205 0.50938123,1.2500211 0.3516957,1.0870213 H 0.30776 c -0.0257466,0 -0.0606512,0.00588 -0.084312,0.014192 -0.0657656,0.023115 -0.11243109,0.015396 -0.16165376,-0.026736 -0.0976843,-0.083614 -0.07597828,-0.24129707 0.03987978,-0.28970566 0.032956,-0.0137696 0.0931311,-0.0122156 0.12716429,0.003282 0.0372907,0.0169833 0.0788941,0.0638949 0.0885862,0.0998885 l 0.007751,0.0287846 h 0.0777481 0.0777483 l 0.0480641,0.0443471 c 0.0264352,0.024391 0.0745397,0.0720319 0.10689869,0.10586906 l 0.0588346,0.061521 0.0510069,0.00427 c 0.0280539,0.00235 0.612975,0.00524 1.2998249,0.00642 1.2331595,0.00212 1.2496632,0.00234 1.3162259,0.016869 0.2406273,0.052531 0.4037294,0.1321393 0.5593189,0.2729959 0.03578,0.032392 0.078274,0.074859 0.094431,0.094372 0.063878,0.077145 0.1534092,0.2316244 0.1788865,0.3086568 0.099712,0.3014879 0.074349,0.5917041 -0.074722,0.8550149 C 3.9833641,2.9274263 3.7621809,3.0933535 3.4759682,3.1697887 3.3471398,3.2041927 3.2908684,3.2083201 2.9487175,3.2084606 2.6698646,3.2085974 2.6303557,3.2072536 2.6205479,3.1974396 Z M 0.215405,0.97839502 C 0.2503477,0.93686812 0.221571,0.87706521 0.1628558,0.86919029 0.1372305,0.86575329 0.1311361,0.86788129 0.1121042,0.88691299 0.08275,0.91626739 0.08187469,0.95564379 0.1099882,0.98211969 0.1437389,1.0139051 0.1868061,1.0123836 0.215405,0.97839502 Z M 5.2816342,2.0195085 c -0.00238,-0.00617 -0.00426,-0.038901 -0.00421,-0.07273 4.58e-5,-0.033828 -0.00377,-0.1074762 -0.00849,-0.1636621 l -0.00858,-0.1021563 0.045927,-0.043302 c 0.060437,-0.056983 0.1663292,-0.1359993 0.2375597,-0.1772655 0.1128901,-0.0654 0.302599,-0.1366497 0.4163756,-0.1563789 0.266316,-0.04618 0.5158505,-0.024747 0.7708271,0.066208 0.072752,0.025952 0.102906,0.040299 0.2239464,0.1065513 0.1077096,0.058956 0.3232888,0.220608 0.3232888,0.2424185 0,0.00574 -0.06053,0.075309 -0.1367894,0.1572126 -0.035397,0.038016 -0.048685,0.035307 -0.115196,-0.023488 C 6.9201325,1.7590766 6.8427425,1.7070643 6.7360189,1.6578307 6.5954039,1.5929621 6.3866789,1.5482339 6.2245842,1.5482339 c -0.077841,0 -0.2222967,0.01778 -0.2909179,0.035807 -0.2170716,0.057025 -0.4360849,0.2038458 -0.5684372,0.3810661 -0.022584,0.03024 -0.044416,0.057328 -0.048516,0.060195 -0.012729,0.0089 -0.030569,0.00595 -0.035078,-0.00579 z m 1.3374055,-0.089256 c -0.040042,-0.027483 -0.053869,-0.051777 -0.053869,-0.094648 0,-0.1016257 0.1175824,-0.1464633 0.1875866,-0.071532 0.02211,0.023667 0.028959,0.090252 0.012534,0.1218376 -0.019712,0.037901 -0.04428,0.054697 -0.084763,0.057946 -0.030581,0.00245 -0.041666,1.8e-6 -0.061489,-0.013604 z M 7.3277436,1.6423762 C 7.3186649,1.636017 7.2966359,1.6172031 7.2787906,1.6005672 7.1758556,1.5046079 7.0388253,1.411241 6.9008969,1.3430854 6.6373474,1.2128556 6.3824213,1.1665229 6.079125,1.1937286 5.8015443,1.2186278 5.5195896,1.3336411 5.2986138,1.5121104 c -0.029269,0.023639 -0.058458,0.043033 -0.064864,0.043099 -0.01199,1.368e-4 -0.034474,-0.0455 -0.034474,-0.06995 0,-0.037047 0.1698825,-0.1574433 0.337818,-0.2394127 0.2270075,-0.1108024 0.4413302,-0.1587952 0.7092278,-0.1588158 0.1713788,-1.27e-5 0.3299565,0.024601 0.4847234,0.075238 0.040498,0.01325 0.08041,0.024181 0.088695,0.024292 0.00828,9.12e-5 0.061883,-0.01181 0.1191085,-0.026489 0.1032136,-0.026475 0.1041677,-0.026579 0.1192035,-0.012972 0.024468,0.022143 0.061917,0.018194 0.086306,-0.0091 0.027675,-0.030973 0.027514,-0.06278 -4.643e-4,-0.089572 -0.030856,-0.029562 -0.073524,-0.029388 -0.098872,4.116e-4 -0.018761,0.02205 -0.049289,0.033833 -0.162871,0.062866 -0.043229,0.01105 -0.046362,0.010922 -0.085147,-0.00347 C 6.666071,1.0596413 6.5388588,1.0297189 6.4065288,1.0163854 6.1740872,0.992964 5.8928153,1.0294308 5.6711165,1.1117311 5.5224772,1.1669097 5.3529915,1.2587036 5.2386074,1.3459779 c -0.064232,0.049008 -0.062945,0.048928 -0.08724,0.00546 -0.020946,-0.037473 -0.010894,-0.053423 0.078702,-0.1249034 0.03792,-0.030253 0.044746,-0.033069 0.080147,-0.033069 0.031625,0 0.041881,-0.00318 0.056114,-0.017417 0.034733,-0.034733 0.015536,-0.1033547 -0.031821,-0.1137567 -0.037567,-0.00825 -0.081607,0.025644 -0.087773,0.067552 -0.00189,0.012731 -0.019814,0.029478 -0.065824,0.06145 -0.034787,0.024172 -0.067261,0.044128 -0.072164,0.044347 -0.0049,2.279e-4 -0.024063,-0.030277 -0.042574,-0.067767 l -0.033657,-0.068165 0.039025,-0.035449 c 0.068289,-0.062032 0.2030711,-0.1476936 0.3334912,-0.21195407 0.065201,-0.0321254 0.2293065,-0.0961758 0.2873699,-0.11216032 0.01904,-0.005241 0.1553757,-0.007826 0.4141439,-0.007853 0.3835716,-3.921e-5 0.3857405,4.194e-5 0.3820127,0.014296 -0.00266,0.0101835 0.00378,0.0214728 0.022234,0.0389816 0.04841,0.0459229 0.1040164,0.0496092 0.1606413,0.0106505 0.035265,-0.0242632 0.053373,-0.057883 0.053373,-0.0990963 0,-0.0407981 -0.016391,-0.0685115 -0.054997,-0.0929959 -0.057284,-0.0363287 -0.124251,-0.0234226 -0.1706704,0.0328912 L 6.477873,0.66282241 6.0922349,0.66029341 C 5.6633956,0.65748227 5.7065164,0.65339976 5.5433982,0.71226369 5.3471811,0.78307168 5.2150458,0.85179196 5.0750915,0.9558185 5.0360661,0.98482561 4.998885,1.0086541 4.9924674,1.0087703 4.9814557,1.0089526 4.9556883,0.96747359 4.8764714,0.82197349 4.8548596,0.78227991 4.8513067,0.77043473 4.857153,0.75759859 4.8658652,0.73848036 5.0201195,0.64410996 5.1423731,0.58310732 5.4946991,0.40730235 5.8972023,0.32574408 6.2990745,0.34872925 c 0.2440562,0.0139584 0.4273459,0.0433229 0.5924792,0.09492 0.090378,0.0282396 0.193636,0.0658563 0.2050088,0.0746853 0.00432,0.003355 0.014243,0.007765 0.022048,0.0098 0.00781,0.002033 0.031126,0.0104995 0.051824,0.0188103 l 0.037633,0.0151103 0.1944437,-0.19639294 0.1944437,-0.19639248 -0.00399,-0.0291452 c -0.00882,-0.06438582 0.032839,-0.1082949 0.096001,-0.10117576 0.042487,0.0047889 0.078893,0.04160805 0.078893,0.07978873 0,0.051154 -0.039203,0.0955422 -0.084383,0.0955422 -0.024147,0 -0.036284,0.0106404 -0.2003021,0.17561489 -0.096028,0.0965883 -0.1797565,0.18341822 -0.1860624,0.19295551 l -0.011467,0.0173402 0.076135,0.0401161 c 0.041874,0.0220634 0.094761,0.0501512 0.1175267,0.0624171 0.030448,0.0164052 0.04466,0.0205518 0.053754,0.015685 0.0068,-0.003637 0.1115609,-0.10731941 0.2328037,-0.23040142 l 0.220441,-0.22378505 0.00263,-0.0551275 c 0.00309,-0.064485 0.019821,-0.10455737 0.061967,-0.1484195 C 8.0935576,0.01630357 8.1345962,-5.7668825e-4 8.1983917,1.4978862e-5 8.3025728,9.8133633e-4 8.3768784,0.05678618 8.4031332,0.15377971 8.4318602,0.25990853 8.3878132,0.35902712 8.293297,0.40093558 8.250731,0.41980958 8.1712221,0.42478808 8.1318275,0.41104668 l -0.029841,-0.0104094 -0.073044,0.0787481 C 7.988768,0.5226968 7.9092141,0.60609114 7.8521556,0.66470525 c -0.057058,0.0586146 -0.1170587,0.12040536 -0.133334,0.13731296 -0.019665,0.0204292 -0.02817,0.0347105 -0.025354,0.0425735 0.00232,0.006508 0.023005,0.0262006 0.045943,0.0437623 0.022936,0.0175612 0.045011,0.0390513 0.049054,0.0477549 0.00425,0.009154 0.011491,0.014236 0.017174,0.0120556 0.014623,-0.005612 0.1112335,0.0891815 0.1112335,0.10914319 0,0.010437 -0.021646,0.03879 -0.062086,0.081329 C 7.7536088,1.2450609 7.622613,1.3807511 7.5053896,1.5005539 7.4449329,1.5623405 7.3928879,1.6175045 7.3897338,1.6231403 c -0.00315,0.00564 -0.014679,0.014872 -0.02561,0.020525 -0.017635,0.00912 -0.021736,0.00898 -0.036382,-0.00128 z M 7.8175368,0.95575493 c 0,-0.00195 -0.00161,-0.003546 -0.00355,-0.003546 -0.00195,0 -0.00355,0.001594 -0.00355,0.003546 0,0.00195 0.00161,0.003546 0.00355,0.003546 0.00195,0 0.00355,-0.001594 0.00355,-0.003546 z M 8.2567687,0.30463308 c 0.00937,-0.004821 0.026421,-0.0203988 0.037882,-0.0346179 0.055314,-0.0686369 0.00192,-0.16217934 -0.092559,-0.16217934 -0.030965,0 -0.04401,0.003761 -0.062818,0.018106 -0.084835,0.0647067 -0.042199,0.18777002 0.064972,0.18753438 0.019514,-4.33e-5 0.043148,-0.00402 0.052524,-0.008843 z M 8.3232729,1.1579036 C 8.2704798,1.1460086 8.2333664,1.0992808 8.233562,1.044952 8.2338715,0.956327 8.3234183,0.8987248 8.4006606,0.93745156 c 0.048423,0.0242775 0.065866,0.0516454 0.066004,0.10355614 9.13e-5,0.036841 -0.00294,0.047532 -0.019764,0.069612 -0.030791,0.040406 -0.076524,0.057897 -0.1236277,0.047284 z"
       id="path7" /></g></svg>
