<?xml version="1.0" encoding="UTF-8" standalone="no"?>
<svg
   role="img"
   viewBox="0 0 24 24"
   version="1.1"
   id="svg1"
   sodipodi:docname="godotengine.svg"
   inkscape:version="1.4.2 (f4327f4, 2025-05-13)"
   xml:space="preserve"
   xmlns:inkscape="http://www.inkscape.org/namespaces/inkscape"
   xmlns:sodipodi="http://sodipodi.sourceforge.net/DTD/sodipodi-0.dtd"
   xmlns="http://www.w3.org/2000/svg"
   xmlns:svg="http://www.w3.org/2000/svg"><defs
     id="defs1" /><sodipodi:namedview
     id="namedview1"
     pagecolor="#ffffff"
     bordercolor="#000000"
     borderopacity="0.25"
     inkscape:showpageshadow="2"
     inkscape:pageopacity="0.0"
     inkscape:pagecheckerboard="0"
     inkscape:deskcolor="#d1d1d1"
     inkscape:zoom="32"
     inkscape:cx="16.546875"
     inkscape:cy="15.546875"
     inkscape:window-width="1920"
     inkscape:window-height="1051"
     inkscape:window-x="-9"
     inkscape:window-y="-9"
     inkscape:window-maximized="1"
     inkscape:current-layer="svg1" /><title
     id="title1">Godot Engine</title><rect
     style="fill:#ffffff;fill-opacity:1;stroke:#8f9292;stroke-width:0;paint-order:stroke markers fill"
     id="rect3"
     width="6.0546017"
     height="6.1871843"
     x="3.3587573"
     y="8.7504463" /><rect
     style="fill:#ffffff;fill-opacity:1;stroke:#8f9292;stroke-width:0;paint-order:stroke markers fill"
     id="rect4"
     width="3.0052037"
     height="5.2591066"
     x="10.562407"
     y="9.9436893" /><rect
     style="fill:#ffffff;fill-opacity:1;stroke:#8f9292;stroke-width:0;paint-order:stroke markers fill"
     id="rect5"
     width="6.6291261"
     height="6.8942909"
     x="14.230524"
     y="8.0433397" /><rect
     style="fill:#ffffff;fill-opacity:1;stroke:#8f9292;stroke-width:0;paint-order:stroke markers fill"
     id="rect6"
     width="21.056398"
     height="1.0673786"
     x="1.475502"
     y="16.1054" /><rect
     style="fill:#ffffff;fill-opacity:1;stroke:#8f9292;stroke-width:0;paint-order:stroke markers fill"
     id="rect7"
     width="16.484426"
     height="3.7377839"
     x="3.800699"
     y="16.1054" /><rect
     style="fill:#ffffff;fill-opacity:1;stroke:#8f9292;stroke-width:0;paint-order:stroke markers fill"
     id="rect8"
     width="0.94703436"
     height="0.225282"
     x="1.4601058"
     y="16.947496" /><rect
     style="fill:#ffffff;fill-opacity:1;stroke:#8f9292;stroke-width:0;paint-order:stroke markers fill"
     id="rect9"
     width="0.90685099"
     height="0.22627887"
     x="21.633049"
     y="16.946501" /><path
     d="M 9.5598,0.6829 C 8.4638,0.9269 7.3786,1.266 6.3615,1.778 c 0.023,0.8981 0.081,1.7582 0.199,2.6323 -0.395,0.253 -0.81,0.47 -1.178,0.766 C 5.0075,5.4643 4.6244,5.7403 4.2854,6.0774 3.6073,5.6294 2.8892,5.2084 2.1502,4.8363 1.3532,5.6933 0.608,6.6185 0,7.6545 0.458,8.3956 0.936,9.0897 1.4521,9.7487 h 0.014 v 6.3565 c 0.012,0 0.023,0 0.035,0.003 l 3.8963,0.376 c 0.204,0.02 0.364,0.184 0.378,0.3891 l 0.12,1.7201 3.3994,0.242 0.234,-1.587 c 0.03,-0.206 0.207,-0.358 0.415,-0.358 h 4.1114 c 0.208,0 0.385,0.152 0.415,0.358 l 0.234,1.587 3.3993,-0.242 0.12,-1.72 a 0.4196,0.4196 0 0 1 0.378,-0.3891 l 3.8954,-0.376 c 0.012,0 0.023,-0.003 0.035,-0.003 v -0.5071 h 0.002 V 9.7497 h 0.014 C 23.0639,9.0907 23.5419,8.3966 24,7.6555 23.392,6.6195 22.6459,5.6944 21.8488,4.8363 c -0.739,0.372 -1.4571,0.793 -2.1352,1.2411 -0.339,-0.337 -0.721,-0.613 -1.096,-0.901 -0.369,-0.296 -0.7841,-0.5131 -1.1781,-0.7661 0.117,-0.8741 0.175,-1.7342 0.199,-2.6323 -1.0171,-0.512 -2.1012,-0.851 -3.1983,-1.095 -0.438,0.736 -0.838,1.533 -1.1871,2.3121 -0.414,-0.069 -0.829,-0.094 -1.2461,-0.099 h -0.016 c -0.417,0.005 -0.832,0.03 -1.2461,0.099 C 10.3959,2.2161 9.9959,1.4191 9.5568,0.683 L 9.5578,0.682 Z M 6.4765,9.9888 c 1.2971,0 2.3492,1.0511 2.3492,2.3482 0,1.2971 -1.052,2.3482 -2.3492,2.3482 -1.296,0 -2.3482,-1.051 -2.3482,-2.3482 0,-1.297 1.0511,-2.3482 2.3482,-2.3482 z m 11.049,0 c 1.296,0 2.3482,1.0511 2.3482,2.3482 0,1.2971 -1.0511,2.3482 -2.3482,2.3482 -1.2971,0 -2.3492,-1.051 -2.3492,-2.3482 0,-1.297 1.051,-2.3482 2.3492,-2.3482 z m -10.824,0.9301 c -0.861,0 -1.559,0.698 -1.559,1.5591 0,0.8611 0.698,1.5582 1.559,1.5582 0.8611,0 1.5592,-0.698 1.5592,-1.5582 0,-0.86 -0.697,-1.559 -1.5591,-1.559 z m 10.598,0 c -0.8611,0 -1.5582,0.698 -1.5582,1.5591 0,0.8611 0.697,1.5582 1.5581,1.5582 0.8611,0 1.5592,-0.698 1.5592,-1.5582 0,-0.86 -0.697,-1.559 -1.5592,-1.559 z m -5.2985,0.453 c 0.417,0 0.757,0.308 0.757,0.6871 v 2.1622 c 0,0.379 -0.339,0.687 -0.757,0.687 -0.418,0 -0.756,-0.308 -0.756,-0.687 v -2.1623 c 0,-0.379 0.339,-0.687 0.756,-0.687 z M 1.4601,16.9463 c 0.002,0.377 0.006,0.789 0.006,0.871 0,3.7014 4.6944,5.4795 10.5269,5.5005 h 0.014 c 5.8325,-0.02 10.5259,-1.7991 10.5259,-5.5004 0,-0.084 0.005,-0.495 0.007,-0.871 l -3.5023,0.338 -0.121,1.729 a 0.421,0.421 0 0 1 -0.389,0.3901 l -4.1814,0.296 a 0.4203,0.4203 0 0 1 -0.415,-0.358 l -0.238,-1.6141 h -3.3863 l -0.238,1.6141 a 0.4192,0.4192 0 0 1 -0.4451,0.357 l -4.1513,-0.296 c -0.208,-0.015 -0.375,-0.181 -0.389,-0.389 l -0.12,-1.7292 -3.5044,-0.337 z"
     id="path1"
     style="fill:#478cbf;fill-opacity:1" /><ellipse
     style="fill:#000000;fill-opacity:1;stroke:#8f9292;stroke-width:0;paint-order:stroke markers fill"
     id="path2-4"
     cx="17.30504"
     cy="12.476322"
     rx="1.5535595"
     ry="1.5537311" /><ellipse
     style="fill:#000000;fill-opacity:1;stroke:#8f9292;stroke-width:0;paint-order:stroke markers fill"
     id="path2-4-2"
     cx="6.7014999"
     cy="12.472631"
     rx="1.5535595"
     ry="1.5537311" /></svg>
