<?xml version="1.0" encoding="UTF-8" standalone="no"?>
<svg
   role="img"
   viewBox="0 0 24 24"
   version="1.1"
   id="svg1"
   sodipodi:docname="nextdotjs.svg"
   xml:space="preserve"
   inkscape:version="1.4.2 (f4327f4, 2025-05-13)"
   xmlns:inkscape="http://www.inkscape.org/namespaces/inkscape"
   xmlns:sodipodi="http://sodipodi.sourceforge.net/DTD/sodipodi-0.dtd"
   xmlns="http://www.w3.org/2000/svg"
   xmlns:svg="http://www.w3.org/2000/svg"><defs
     id="defs1" /><sodipodi:namedview
     id="namedview1"
     pagecolor="#ffffff"
     bordercolor="#000000"
     borderopacity="0.25"
     inkscape:showpageshadow="2"
     inkscape:pageopacity="0.0"
     inkscape:pagecheckerboard="0"
     inkscape:deskcolor="#d1d1d1"
     inkscape:zoom="16"
     inkscape:cx="25.375"
     inkscape:cy="17.09375"
     inkscape:window-width="1920"
     inkscape:window-height="1051"
     inkscape:window-x="-9"
     inkscape:window-y="-9"
     inkscape:window-maximized="1"
     inkscape:current-layer="svg1" /><title
     id="title1">Next.js</title><path
     d="M18.665 21.978C16.758 23.255 14.465 24 12 24 5.377 24 0 18.623 0 12S5.377 0 12 0s12 5.377 12 12c0 3.583-1.574 6.801-4.067 9.001L9.219 7.2H7.2v9.596h1.615V9.251l9.85 12.727Zm-3.332-8.533 1.6 2.061V7.2h-1.6v6.245Z"
     id="path1" /><path
     style="fill:#ffffff;fill-opacity:1;stroke-width:0.664878"
     d="m 18.661631,21.992134 0.01556,0.0201 L 13.749714,15.6451 8.822238,9.277964 8.807368,13.057949 8.792498,16.837932 H 7.983275 7.174053 v -4.830248 -4.83025 l 1.025611,0.01579 1.025612,0.01579 5.27796,6.795181 c 2.902877,3.737348 5.455857,6.884445 5.500925,6.948057 -1.32697,1.059982 4.7e-5,-4.3e-5 -1.34253,1.039882 z m -2.535931,-7.51264 -0.792927,-1.024698 -0.0023,-3.137349 -0.0023,-3.137349 h 0.809638 0.809639 v 4.163854 c 0,2.290121 -0.0065,4.163041 -0.01445,4.162048 -0.008,-9.98e-4 -0.371275,-0.462922 -0.807384,-1.026507 z M 23.96997,0.014567 c 0.0031,2.554882 0.0031,2.554882 0,0 -7.4e-5,-0.06016 0.0219,3.121087 0,0 z M 0.002942,-0.021303 c 0.0031,2.083584 0.004,2.715274 0,0 0.0049,3.32117 0,0 0,0 z"
     id="path2"
     sodipodi:nodetypes="ccsscccccccccccsccccccccsccccsc" /></svg>
